<?xml version="1.0" standalone="no"?>
<!DOCTYPE svg PUBLIC "-//W3C//DTD SVG 20010904//EN"
 "http://www.w3.org/TR/2001/REC-SVG-20010904/DTD/svg10.dtd">
<svg version="1.0" xmlns="http://www.w3.org/2000/svg"
 width="558.000000pt" height="558.000000pt" viewBox="0 0 558.000000 558.000000"
 preserveAspectRatio="xMidYMid meet">
<metadata>
Created by potrace 1.11, written by Peter Selinger 2001-2013
</metadata>
<g transform="translate(0.000000,558.000000) scale(0.100000,-0.100000)"
fill="#000000" stroke="none">
<path d="M491 5572 c-3 -42 23 -207 34 -216 8 -7 20 -76 33 -194 17 -147 24
-186 38 -197 14 -10 22 -58 46 -271 19 -177 25 -261 17 -269 -19 -19 -26 14
-48 228 -21 202 -39 323 -46 315 -5 -4 52 -542 61 -578 3 -14 10 -28 16 -31
14 -9 23 -126 10 -142 -8 -9 -5 -70 13 -222 13 -116 26 -246 30 -290 4 -44 13
-87 20 -95 7 -8 17 -53 21 -100 l7 -85 -20 24 c-15 18 -32 25 -73 28 -30 2
-59 10 -64 17 -14 17 -79 35 -155 42 -68 8 -165 -10 -193 -34 -10 -8 -18 -12
-18 -8 0 12 -35 -28 -50 -57 -7 -15 -24 -30 -37 -33 -13 -4 -23 -12 -23 -19 0
-7 -7 -18 -15 -25 -8 -7 -13 -16 -10 -20 3 -4 -2 -10 -10 -14 -8 -3 -20 -16
-26 -30 -6 -13 -20 -27 -30 -29 -18 -5 -19 -19 -19 -266 l0 -261 44 33 c23 17
53 39 66 47 12 8 51 58 86 110 77 115 149 207 251 318 78 86 109 107 130 90 8
-6 24 -5 47 3 40 15 101 1 129 -28 32 -34 74 -88 81 -103 12 -29 -6 169 -55
605 -48 424 -77 689 -157 1420 -37 335 -38 340 -60 343 -23 4 -23 3 -17 -80 4
-46 7 -85 7 -88 0 -22 -4 -30 -16 -30 -14 0 -25 46 -27 115 -1 39 -16 103 -18
77z m196 -1364 c8 -11 64 -489 63 -535 0 -7 -6 -13 -14 -13 -17 0 -17 1 -51
310 -28 257 -28 250 -16 250 5 0 13 -6 18 -12z"/>
<path d="M610 5567 c0 -18 89 -837 155 -1432 30 -269 93 -841 140 -1270 225
-2048 286 -2610 300 -2727 8 -70 15 -130 15 -133 0 -9 3878 -6 3885 4 3 5 1
12 -5 16 -5 3 -10 17 -10 30 0 13 -5 25 -12 27 -7 3 -14 45 -19 109 -4 57 -10
111 -13 119 -9 25 -48 387 -44 407 2 10 14 -70 27 -177 23 -192 38 -285 40
-245 1 12 9 37 20 58 18 36 18 36 0 26 -11 -5 -19 -6 -19 -2 0 4 -7 55 -15
113 -8 58 -15 121 -15 140 l0 35 92 -3 c107 -4 150 9 258 77 36 23 93 55 128
71 l62 29 0 86 c0 47 -2 85 -4 85 -3 0 -11 -6 -18 -14 -21 -21 -58 -30 -58
-14 0 10 -20 13 -78 13 -109 -1 -122 -3 -122 -20 0 -8 -7 -15 -15 -15 -8 0
-15 -4 -15 -9 0 -5 -8 -11 -17 -15 -20 -6 -51 -25 -70 -43 -16 -14 -81 -28
-90 -20 -3 4 -14 2 -25 -4 -16 -9 -24 -6 -39 10 -11 12 -26 21 -33 21 -8 0
-16 14 -19 33 -3 17 -8 48 -12 67 -4 19 -8 61 -9 92 0 32 -4 58 -8 58 -3 0 -9
19 -13 43 -4 23 -12 45 -19 49 -7 5 -12 55 -13 140 -1 72 -5 157 -8 188 -4 30
-20 161 -36 290 -15 129 -47 390 -69 580 -22 190 -58 491 -80 670 -22 179 -64
534 -95 790 -30 256 -64 537 -75 625 -11 88 -42 351 -70 585 -28 234 -53 435
-55 448 -5 20 -11 22 -75 22 -64 0 -70 -2 -70 -20 0 -11 22 -177 49 -368 27
-191 54 -387 60 -437 76 -640 101 -864 105 -940 8 -138 -6 -55 -61 380 -6 55
-8 57 -13 25 -3 -19 -11 -34 -17 -33 -6 1 -17 -4 -23 -12 -9 -11 -34 -15 -86
-15 -67 0 -74 -2 -74 -20 0 -20 -7 -20 -415 -20 -270 0 -415 -3 -415 -10 0 -6
-32 -10 -75 -10 -43 0 -75 -4 -75 -10 0 -6 -45 -10 -115 -10 -108 0 -115 1
-115 20 0 16 -7 20 -34 20 -25 0 -35 -5 -38 -17 -2 -14 -9 -11 -37 16 -31 30
-35 32 -41 15 -6 -17 -8 -17 -26 4 -10 12 -24 22 -31 22 -7 0 -13 5 -13 10 0
6 -22 10 -54 9 -50 -2 -55 0 -94 39 -24 24 -57 45 -79 51 -21 6 -47 17 -58 25
-11 9 -30 16 -42 16 -14 0 -23 6 -23 15 0 9 -12 18 -30 22 -38 7 -39 20 -2 26
15 2 -11 5 -58 6 -47 1 -103 6 -125 12 -22 6 -75 16 -117 22 -43 6 -78 14 -78
19 0 4 -33 8 -74 8 -49 0 -76 4 -78 12 -3 8 -11 7 -28 -5 -15 -10 -44 -17 -72
-17 -27 0 -48 -4 -48 -10 0 -5 -15 -10 -34 -10 -19 0 -38 5 -41 10 -3 6 -22
10 -41 10 -24 0 -34 5 -34 15 0 8 8 15 17 15 14 0 14 3 5 12 -10 10 -15 10
-22 -2 -8 -13 -13 -12 -41 4 -42 25 -89 70 -89 85 0 7 -8 20 -17 29 -16 16
-15 17 5 20 18 3 22 10 22 38 0 27 -4 34 -20 34 -28 0 -25 17 5 24 30 8 32 22
5 31 -22 7 -29 60 -10 67 16 5 25 73 23 173 -2 70 -6 92 -19 102 -13 9 -15 22
-9 61 4 32 1 69 -9 109 -15 59 -21 121 -14 153 2 8 17 42 33 74 20 41 25 61
17 64 -7 2 -12 12 -12 23 0 18 -11 19 -319 19 l-320 0 -4 -32 -4 -33 -1 33 -2
32 -60 0 -60 0 5 -37 c3 -21 21 -180 40 -353 35 -321 70 -631 106 -935 11 -93
33 -287 49 -430 17 -143 39 -332 50 -420 37 -303 90 -779 89 -805 -2 -28 -16
69 -50 340 -17 136 -25 177 -31 155 -5 -21 -6 -16 -3 18 3 26 1 47 -4 47 -4 0
-11 33 -14 73 -16 190 -76 751 -141 1312 -25 215 -59 516 -76 670 -42 391 -38
365 -61 365 -10 0 -19 -6 -19 -13z m3877 -1109 c-3 -8 -6 -5 -6 6 -1 11 2 17
5 13 3 -3 4 -12 1 -19z m10 -85 c-3 -10 -5 -4 -5 12 0 17 2 24 5 18 2 -7 2
-21 0 -30z m10 -70 c-3 -10 -5 -2 -5 17 0 19 2 27 5 18 2 -10 2 -26 0 -35z
m10 -75 c-3 -7 -5 -2 -5 12 0 14 2 19 5 13 2 -7 2 -19 0 -25z m-101 -93 c0
-30 -4 -55 -8 -55 -4 0 -8 11 -8 24 0 24 11 86 15 86 1 0 2 -25 1 -55z m111
23 c-3 -7 -5 -2 -5 12 0 14 2 19 5 13 2 -7 2 -19 0 -25z m-152 -27 c3 -5 1
-12 -5 -16 -5 -3 -10 1 -10 9 0 18 6 21 15 7z m162 -48 c-3 -10 -5 -4 -5 12 0
17 2 24 5 18 2 -7 2 -21 0 -30z m10 -65 c-3 -8 -6 -5 -6 6 -1 11 2 17 5 13 3
-3 4 -12 1 -19z m-729 -5 c-10 -2 -28 -2 -40 0 -13 2 -5 4 17 4 22 1 32 -1 23
-4z m-742 -288 c257 -45 502 -186 640 -368 58 -76 118 -202 139 -288 21 -91
19 -249 -4 -341 -42 -164 -158 -337 -302 -451 -62 -49 -79 -68 -79 -88 0 -32
46 -97 95 -136 90 -69 90 -65 -1 -60 -64 4 -102 13 -180 45 -139 55 -148 56
-272 24 -98 -25 -122 -27 -297 -26 -172 0 -199 3 -287 26 -359 97 -612 326
-688 624 -25 97 -27 251 -4 343 23 93 92 234 156 316 141 182 404 332 664 379
107 19 311 20 420 1z m1531 -237 c-3 -8 -6 -5 -6 6 -1 11 2 17 5 13 3 -3 4
-12 1 -19z m78 -563 c50 -410 48 -401 42 -395 -3 3 -20 122 -37 265 -17 143
-40 316 -50 385 -10 69 -21 161 -24 205 -5 75 -4 72 14 -40 10 -66 35 -255 55
-420z m-3748 63 c-2 -13 -4 -5 -4 17 -1 22 1 32 4 23 2 -10 2 -28 0 -40z m53
-423 c12 -99 30 -247 41 -329 10 -81 18 -162 18 -180 -1 -17 -10 32 -20 109
-30 224 -89 741 -88 767 2 24 13 -61 49 -367z m3654 55 c26 -205 86 -742 86
-769 0 -42 -11 10 -29 139 -26 187 -101 815 -101 843 1 17 2 19 9 7 5 -8 21
-107 35 -220z m-3627 -107 c-3 -10 -5 -4 -5 12 0 17 2 24 5 18 2 -7 2 -21 0
-30z m3731 -118 c0 -22 -3 -18 -9 15 -4 25 -7 59 -7 75 0 22 3 18 9 -15 4 -25
7 -58 7 -75z m9 -97 c-2 -13 -4 -5 -4 17 -1 22 1 32 4 23 2 -10 2 -28 0 -40z
m21 -158 c-1 -28 -2 -25 -8 15 -5 28 -8 66 -8 85 1 28 2 25 8 -15 5 -27 8 -66
8 -85z m39 -340 c-2 -28 -38 253 -36 285 1 11 10 -43 20 -120 10 -77 18 -151
16 -165z m-3749 95 c0 -22 -3 -18 -9 15 -4 25 -7 61 -7 80 1 29 2 26 8 -15 5
-27 8 -63 8 -80z m9 -82 c-3 -10 -5 -4 -5 12 0 17 2 24 5 18 2 -7 2 -21 0 -30z
m3750 -100 c-3 -10 -5 -2 -5 17 0 19 2 27 5 18 2 -10 2 -26 0 -35z m10 -85
c-3 -7 -5 -2 -5 12 0 14 2 19 5 13 2 -7 2 -19 0 -25z m-50 -180 c-3 -8 -6 -5
-6 6 -1 11 2 17 5 13 3 -3 4 -12 1 -19z m160 -1075 c-3 -10 -5 -4 -5 12 0 17
2 24 5 18 2 -7 2 -21 0 -30z m10 -75 c-3 -8 -6 -5 -6 6 -1 11 2 17 5 13 3 -3
4 -12 1 -19z"/>
<path d="M2522 3039 c-127 -95 -230 -174 -228 -176 7 -7 517 -83 554 -83 28 0
72 29 258 167 123 92 222 168 220 170 -2 2 -118 22 -257 43 -140 22 -267 43
-284 46 -27 4 -56 -14 -263 -167z"/>
<path d="M3281 2988 c0 -18 19 -125 42 -238 l42 -205 35 3 c19 1 39 7 43 11
11 11 -135 453 -151 459 -8 2 -12 -8 -11 -30z"/>
<path d="M3020 2820 c-74 -55 -139 -100 -145 -100 -5 0 -82 11 -170 25 -87 13
-162 22 -164 19 -6 -6 56 -263 68 -283 23 -37 239 -53 345 -26 80 21 186 78
242 131 40 37 46 46 40 71 -29 121 -70 263 -75 263 -4 0 -67 -45 -141 -100z"/>
<path d="M2385 5569 c18 -5 43 -5 60 0 25 8 20 9 -30 9 -51 0 -55 -1 -30 -9z"/>
<path d="M3186 5543 c-9 -21 -21 -46 -26 -55 -6 -10 -10 -27 -10 -37 0 -11 -4
-22 -9 -25 -4 -3 -12 -20 -16 -38 -5 -18 -10 -42 -13 -53 -3 -11 -5 -74 -6
-140 -1 -119 -1 -119 24 -126 14 -4 19 -7 13 -8 -27 -2 -11 -19 24 -26 21 -4
40 -11 43 -16 8 -13 81 12 88 31 3 8 9 17 12 20 14 10 88 158 95 189 4 17 10
31 14 31 9 0 9 3 13 96 2 52 8 75 21 89 10 9 16 24 12 33 -3 8 2 20 12 27 9 7
18 20 19 29 2 14 -14 16 -146 16 l-148 0 -16 -37z"/>
<path d="M4434 5538 c3 -24 49 -401 101 -838 206 -1731 211 -1776 214 -1695 0
22 -17 189 -39 370 -88 734 -150 1252 -154 1283 -3 19 0 42 7 53 9 15 8 21 -4
31 -16 13 -19 31 -96 691 -9 81 -21 147 -26 147 -5 0 -6 -19 -3 -42z"/>
<path d="M4372 4590 c0 -14 2 -19 5 -12 2 6 2 18 0 25 -3 6 -5 1 -5 -13z"/>
<path d="M1640 4450 c0 -5 18 -10 40 -10 22 0 40 5 40 10 0 6 -18 10 -40 10
-22 0 -40 -4 -40 -10z"/>
<path d="M4391 4394 c0 -11 3 -14 6 -6 3 7 2 16 -1 19 -3 4 -6 -2 -5 -13z"/>
<path d="M4398 4337 c-3 -19 -2 -25 4 -19 6 6 8 18 6 28 -3 14 -5 12 -10 -9z"/>
<path d="M4367 4236 c-4 -10 -3 -15 3 -11 6 3 10 1 10 -6 0 -7 3 -10 6 -6 3 3
2 13 -4 22 -8 16 -9 16 -15 1z"/>
<path d="M3698 4153 c12 -2 32 -2 45 0 12 2 2 4 -23 4 -25 0 -35 -2 -22 -4z"/>
<path d="M781 3177 c-1 -26 12 -116 29 -200 30 -155 36 -198 45 -322 3 -47 2
-65 -5 -55 -7 11 -10 6 -10 -20 0 -25 -6 -39 -21 -48 -13 -8 -18 -19 -15 -29
7 -18 -21 -66 -33 -58 -17 10 -33 -25 -29 -61 3 -28 0 -38 -11 -41 -19 -5 -51
-57 -51 -83 0 -10 -4 -22 -10 -25 -5 -3 -9 -20 -8 -38 1 -18 -4 -41 -9 -52 -6
-11 -14 -38 -18 -60 -8 -49 -42 -111 -64 -119 -9 -3 -42 -14 -73 -24 -31 -9
-68 -27 -82 -39 -14 -13 -26 -20 -26 -17 0 4 -7 1 -15 -6 -16 -14 -21 -85 -6
-94 5 -3 12 -34 16 -68 4 -35 11 -80 15 -102 5 -25 4 -48 -3 -65 -6 -14 -12
-60 -13 -101 -3 -102 -10 -223 -19 -356 l-8 -112 27 5 c19 4 25 10 22 20 -4 8
3 28 15 44 20 28 21 28 51 13 16 -8 32 -13 36 -10 3 3 0 6 -6 6 -7 0 -12 7
-12 16 0 9 -8 23 -17 30 -17 12 -16 13 5 14 12 0 25 7 28 15 4 10 14 13 33 9
21 -5 24 -4 14 7 -17 18 -16 29 2 29 8 0 15 5 15 10 0 6 5 10 11 10 6 0 9 -9
6 -19 -2 -10 -1 -25 4 -32 7 -11 9 -10 9 4 0 22 33 23 54 1 15 -14 16 -14 16
5 0 12 5 21 11 21 7 0 9 -11 6 -27 l-5 -28 17 22 c18 21 18 21 34 2 12 -13 30
-19 57 -19 27 0 47 -7 60 -20 11 -11 17 -20 13 -20 -5 0 -1 -5 7 -10 8 -5 16
-14 16 -20 1 -5 2 -14 3 -19 0 -5 17 -15 36 -22 34 -13 56 -40 36 -47 -25 -8
4 -122 30 -122 8 0 8 -4 1 -13 -8 -9 -7 -21 3 -41 8 -15 14 -31 12 -34 -1 -4
5 -25 14 -47 15 -35 26 -87 45 -205 4 -19 7 -96 9 -170 2 -133 17 -245 37
-285 24 -46 88 -74 88 -37 0 41 -32 207 -41 212 -5 4 -12 38 -16 76 -3 38 -9
71 -12 74 -4 3 -4 21 0 40 6 33 6 33 8 6 0 -16 4 -27 7 -23 9 9 -9 205 -66
717 -27 245 -63 571 -80 725 -107 969 -125 1104 -154 1160 -9 17 -16 37 -16
46 0 8 -4 19 -9 25 -5 5 -16 41 -24 79 l-15 70 -1 -48z m17 -2024 c-10 -2 -28
-2 -40 0 -13 2 -5 4 17 4 22 1 32 -1 23 -4z"/>
<path d="M4760 2860 c0 -41 128 -1133 149 -1270 8 -50 16 -37 11 18 -1 13 4
30 10 38 10 11 9 14 -2 14 -11 0 -18 27 -27 118 -7 64 -15 124 -17 133 -4 13
13 21 88 39 102 25 213 72 448 188 l155 77 3 98 c2 66 -1 97 -8 92 -5 -3 -10
0 -10 7 0 9 -3 9 -10 -2 -6 -9 -10 -10 -10 -3 0 7 -18 -7 -40 -29 -22 -23 -40
-36 -40 -29 0 16 -81 5 -92 -13 -4 -6 -12 -11 -17 -11 -15 0 -101 -78 -101
-92 0 -16 -12 -17 -28 -1 -9 9 -12 9 -12 0 0 -39 -165 -93 -215 -70 -13 6 -22
14 -20 18 3 4 -8 10 -24 13 -17 4 -32 15 -36 26 -3 10 -13 22 -21 25 -8 3 -12
11 -9 16 4 6 2 17 -4 24 -6 7 -13 26 -15 42 -2 16 -7 38 -12 49 -4 11 -8 55
-9 97 0 43 -4 78 -9 78 -4 0 -6 6 -3 14 3 8 3 17 -1 20 -3 4 -7 21 -8 39 -4
72 -63 291 -64 237z"/>
<path d="M5440 2390 c0 -5 5 -10 10 -10 6 0 10 5 10 10 0 6 -4 10 -10 10 -5 0
-10 -4 -10 -10z"/>
<path d="M357 838 c-2 -29 -1 -60 4 -68 6 -11 8 -6 9 17 0 20 7 36 17 42 14 8
15 13 5 35 -18 40 -29 31 -35 -26z"/>
<path d="M375 688 c8 -38 48 -80 53 -56 4 18 -36 88 -50 88 -6 0 -7 -13 -3
-32z"/>
</g>
</svg>
